<svg viewBox="0 0 41 41" fill="none" xmlns="http://www.w3.org/2000/svg">
<path d="M21.3541 37.5835H6.96994C4.98827 37.5835 3.36536 35.9948 3.36536 34.0473V8.69561C3.36536 4.21977 6.69661 2.18686 10.7795 4.18561L18.3645 7.90977C20.0045 8.71269 21.3541 10.8481 21.3541 12.6589V37.5835Z" stroke="currentColor" stroke-width="1.5" stroke-linecap="round" stroke-linejoin="round"/>
<path d="M37.532 25.7277V32.1852C37.532 35.8752 35.8237 37.5835 32.1337 37.5835H21.3541V17.801L22.157 17.9719L29.8445 19.6973L33.3125 20.466C35.5675 20.9614 37.4125 22.1231 37.515 25.4031C37.532 25.5056 37.532 25.6081 37.532 25.7277Z" stroke="currentColor" stroke-width="1.5" stroke-linecap="round" stroke-linejoin="round"/>
<path d="M9.39587 15.3752H15.3238" stroke="currentColor" stroke-width="1.5" stroke-linecap="round" stroke-linejoin="round"/>
<path d="M9.39587 22.2085H15.3238" stroke="currentColor" stroke-width="1.5" stroke-linecap="round" stroke-linejoin="round"/>
<path d="M29.8445 19.6972V25.1981C29.8445 27.3164 28.1191 29.0418 26.0007 29.0418C23.8824 29.0418 22.157 27.3164 22.157 25.1981V17.9718L29.8445 19.6972Z" stroke="currentColor" stroke-width="1.5" stroke-linecap="round" stroke-linejoin="round"/>
<path d="M37.5149 25.4031C37.4124 27.4189 35.7382 29.0418 33.6882 29.0418C31.5699 29.0418 29.8445 27.3164 29.8445 25.1981V19.6973L33.3124 20.466C35.5674 20.9614 37.4124 22.1231 37.5149 25.4031Z" stroke="currentColor" stroke-width="1.5" stroke-linecap="round" stroke-linejoin="round"/>
</svg>
