<svg viewBox="0 0 36 36" fill="none" xmlns="http://www.w3.org/2000/svg">
<path d="M3.43506 11.67V26.265C3.43506 29.115 5.46006 30.285 7.92006 28.875L11.4451 26.865C12.2101 26.43 13.4851 26.385 14.2801 26.79L22.1551 30.735C22.9501 31.125 24.2251 31.095 24.9901 30.66L31.4851 26.94C32.3101 26.46 33.0001 25.29 33.0001 24.33V9.73502C33.0001 6.88502 30.9751 5.71502 28.5151 7.12502L24.9901 9.13502C24.2251 9.57002 22.9501 9.61502 22.1551 9.21002L14.2801 5.28002C13.4851 4.89002 12.2101 4.92002 11.4451 5.35502L4.95006 9.07502C4.11006 9.55502 3.43506 10.725 3.43506 11.67Z" stroke="currentColor" stroke-width="1.5" stroke-linecap="round" stroke-linejoin="round"/>
<path d="M12.84 6V25.5" stroke="currentColor" stroke-width="1.5" stroke-linecap="round" stroke-linejoin="round"/>
<path d="M23.595 9.92999V30" stroke="currentColor" stroke-width="1.5" stroke-linecap="round" stroke-linejoin="round"/>
</svg>
