<svg width="112" height="37" viewBox="0 0 112 37" fill="none" xmlns="http://www.w3.org/2000/svg">
<g clip-path="url(#clip0_57_632)">
<mask id="mask0_57_632" style="mask-type:luminance" maskUnits="userSpaceOnUse" x="0" y="0" width="112" height="37">
<path d="M112 0H0V37H112V0Z" fill="white"/>
</mask>
<g mask="url(#mask0_57_632)">
<path d="M54.4854 21.9331H46.6106C45.71 21.9331 45.2158 22.5417 45.2158 23.283V32.0999C45.2158 32.966 45.8535 33.4654 46.6505 33.4654C47.4236 33.4654 48.0453 32.966 48.0453 32.0999V24.6172H53.0746V32.0999C53.0746 32.966 53.6963 33.4654 54.4854 33.4654C55.2585 33.4654 55.8962 32.9504 55.8962 32.0843V23.283C55.8962 22.5417 55.394 21.9331 54.4854 21.9331Z" fill="#191715"/>
<path d="M68.1945 21.9331H68.0829C67.254 21.9331 66.704 22.3388 66.1222 23.1503L61.5312 29.5329V23.2986C61.5312 22.4325 60.9653 21.9331 60.1922 21.9331C59.4031 21.9331 58.8213 22.4325 58.8213 23.2986V31.7956C58.8213 32.7163 59.427 33.3483 60.3835 33.3483H60.519C61.4037 33.3483 61.9696 32.9036 62.5196 32.1311L67.1185 25.7486V31.9829C67.1185 32.849 67.6844 33.3483 68.4734 33.3483C69.2466 33.3483 69.8284 32.849 69.8284 31.9829V23.4858C69.8204 22.5261 69.2306 21.9331 68.1945 21.9331Z" fill="#191715"/>
<path d="M83.9043 30.6721H83.1869V23.1894C83.1869 22.3233 82.5493 21.824 81.7522 21.824C80.9791 21.824 80.3574 22.3233 80.3574 23.1894V30.6721H75.4636V23.1894C75.4636 22.3233 74.8579 21.824 74.0528 21.824C73.2638 21.824 72.6421 22.3233 72.6421 23.1894V32.0064C72.6421 32.7476 73.1522 33.3484 74.0369 33.3484H82.5094V34.5656C82.5094 35.4317 83.1152 35.9311 83.8803 35.9311C84.6694 35.9311 85.2752 35.4317 85.2752 34.5656V32.0376C85.2831 31.1403 84.7332 30.6721 83.9043 30.6721Z" fill="#191715"/>
<path d="M98.0517 30.6721H97.3344V23.1894C97.3344 22.3233 96.6967 21.824 95.8997 21.824C95.1266 21.824 94.5049 22.3233 94.5049 23.1894V30.6721H89.6111V23.1894C89.6111 22.3233 89.0053 21.824 88.2003 21.824C87.4112 21.824 86.7896 22.3233 86.7896 23.1894V32.0064C86.7896 32.7476 87.2997 33.3484 88.1844 33.3484H96.6569V34.5656C96.6569 35.4317 97.2626 35.9311 98.0278 35.9311C98.8169 35.9311 99.4226 35.4317 99.4226 34.5656V32.0376C99.4306 31.1403 98.8806 30.6721 98.0517 30.6721Z" fill="#191715"/>
<path d="M111.816 31.4133L107.975 23.2283C107.544 22.3232 106.939 21.9409 106.07 21.9409H105.918C105.018 21.9409 104.412 22.331 103.982 23.2283L100.14 31.4133C99.7652 32.2248 100.028 32.9426 100.777 33.2235C101.455 33.481 102.132 33.3327 102.507 32.5603L103.376 30.7735C104.149 31.031 105.105 31.1636 106.014 31.1636C106.978 31.1636 107.823 31.031 108.541 30.7735L109.37 32.5447C109.728 33.3171 110.461 33.4654 111.123 33.2235C111.88 32.9426 112.175 32.1858 111.816 31.4133ZM106.022 28.7058C105.44 28.7058 104.818 28.6356 104.348 28.5029L105.99 24.9293L107.632 28.5029C107.17 28.6278 106.604 28.7058 106.022 28.7058Z" fill="#191715"/>
<path d="M57.873 12.3908H57.1556V4.99391C57.1556 4.25266 56.6455 3.65186 55.7608 3.65186H49.2968C48.5396 3.65186 48.0375 4.15122 48.0375 5.01731V6.80411C48.0375 8.09154 48.0216 9.09027 47.7904 10.1592C47.5672 11.2126 47.2803 11.8524 46.8658 12.3908H46.547C45.6464 12.3908 45.208 12.9448 45.208 13.7406V16.2843C45.208 17.1504 45.8138 17.6497 46.5869 17.6497C47.376 17.6497 47.9817 17.1504 47.9817 16.2843V15.0671H56.4781V16.2843C56.4781 17.1504 57.0839 17.6497 57.8491 17.6497C58.6381 17.6497 59.2439 17.1504 59.2439 16.2843V13.7328C59.2518 12.9448 58.8214 12.3908 57.873 12.3908ZM54.3341 12.3908H49.7591C50.0381 11.7978 50.2692 11.2672 50.4525 10.4557C50.6438 9.60525 50.7156 8.76257 50.7315 7.6546L50.7474 6.32815H54.3261V12.3908H54.3341Z" fill="#191715"/>
<path d="M65.8834 3.55811C62.5119 3.55811 59.9136 6.04714 59.9136 9.36325C59.9136 12.7184 62.5119 15.1684 65.8834 15.1684C69.2549 15.1684 71.8532 12.6247 71.8532 9.32423C71.8532 6.00813 69.2549 3.55811 65.8834 3.55811ZM65.8834 12.5779C64.0343 12.5779 62.7032 11.2125 62.7032 9.34764C62.7032 7.52182 64.0422 6.15638 65.8834 6.15638C67.7485 6.15638 69.0636 7.52182 69.0636 9.34764C69.0636 11.2125 67.8043 12.5779 65.8834 12.5779Z" fill="#191715"/>
<path d="M92.7193 3.55811C89.3479 3.55811 86.7495 6.04714 86.7495 9.36325C86.7495 12.7184 89.3479 15.1684 92.7193 15.1684C96.0908 15.1684 98.6892 12.6247 98.6892 9.32423C98.6892 6.00813 96.0908 3.55811 92.7193 3.55811ZM92.7193 12.5779C90.8702 12.5779 89.5392 11.2125 89.5392 9.34764C89.5392 7.52182 90.8782 6.15638 92.7193 6.15638C94.5844 6.15638 95.8995 7.52182 95.8995 9.34764C95.9075 11.2125 94.6402 12.5779 92.7193 12.5779Z" fill="#191715"/>
<path d="M84.8129 12.3908H84.0956V4.99391C84.0956 4.25266 83.5855 3.65186 82.7008 3.65186H76.2368C75.4796 3.65186 74.9774 4.15122 74.9774 5.01731V6.80411C74.9774 8.09154 74.9615 9.09027 74.7304 10.1592C74.5072 11.2126 74.2203 11.8524 73.8058 12.3908H73.487C72.5863 12.3908 72.1479 12.9448 72.1479 13.7406V16.2843C72.1479 17.1504 72.7537 17.6497 73.5268 17.6497C74.3159 17.6497 74.9216 17.1504 74.9216 16.2843V15.0671H83.4181V16.2843C83.4181 17.1504 84.0238 17.6497 84.789 17.6497C85.5781 17.6497 86.1838 17.1504 86.1838 16.2843V13.7328C86.1838 12.9448 85.7534 12.3908 84.8129 12.3908ZM81.2661 12.3908H76.6911C76.97 11.7978 77.2012 11.2672 77.3845 10.4557C77.5758 9.60525 77.6475 8.76257 77.6635 7.6546L77.6794 6.32815H81.2581L81.2661 12.3908Z" fill="#191715"/>
<path d="M16.913 0.03125C27.8962 0.03125 36.3369 7.42813 36.3369 18.4142C36.3369 29.4549 27.8962 36.9766 16.9051 36.9766H4.58283C2.09607 36.9766 0.0317383 35.3615 0.0317383 32.5603V4.62699C0.0317383 1.81805 2.09607 0.03125 4.58283 0.03125H16.913Z" fill="#FF6900"/>
<path d="M8.60788 19.3896C8.60788 15.9877 7.49203 12.89 7.85867 10.955L7.77099 10.8458C6.5037 12.141 5.68275 11.7977 5.59507 11.3841C5.41176 10.5493 6.89425 9.52711 7.74708 9.17599C7.76302 9.12138 7.78693 9.06676 7.81084 9.00434C7.02178 9.12138 6.08924 9.02774 6.05736 8.47376C6.01751 7.81834 7.3645 7.22534 9.13393 7.37359C9.16581 7.34238 9.19769 7.31897 9.23755 7.28776C9.12596 7.24095 9.0064 7.19413 8.86294 7.1161C8.40862 6.88983 8.29704 6.5075 8.44848 6.22661C8.60788 5.9223 9.11002 5.80526 9.51651 5.81307C10.1541 5.82867 10.6882 5.97692 11.0867 6.13297C11.1345 6.11737 11.1744 6.09396 11.2222 6.07836C11.0787 5.96912 10.9512 5.84428 10.8715 5.71944C10.7599 5.53998 10.736 5.28249 10.9432 5.11863C11.1903 4.93137 11.812 4.86115 12.3779 5.36052C12.4974 5.46195 12.5931 5.56338 12.6808 5.66482C12.7445 5.65702 12.8083 5.64141 12.872 5.63361C12.7764 5.49316 12.7047 5.34491 12.6808 5.21227C12.6489 5.025 12.7126 4.82214 12.9358 4.75191C13.1829 4.67389 13.4937 4.79873 13.6531 5.03281C13.8285 5.28249 13.9321 5.58679 13.9959 5.80527C12.7525 5.94571 9.44478 6.68696 9.44478 10.6039C9.44478 14.4194 12.6808 18.4299 12.6808 24.3443C12.6728 26.49 12.1946 28.6513 10.202 31.1638C8.66368 33.1066 6.22474 34.9714 2.41489 36.5086C3.06846 36.8207 3.81768 36.9845 4.60675 36.9845H5.97765C9.12596 35.2757 10.6882 33.7074 11.7721 32.2405C13.8843 33.1612 15.9167 33.5592 17.7499 33.5592C21.1852 33.5592 24.1103 32.0142 25.6327 29.2521C27.2028 28.3314 28.2469 26.4354 28.3107 25.0777C29.2911 23.8761 29.4664 22.3546 29.1715 21.3247C29.0998 21.0828 28.9005 21.075 28.5418 21.2857C25.4254 23.0881 22.4286 23.9541 19.5672 23.9541C17.8376 23.9541 16.0602 23.6811 14.1633 23.1505C14.0278 21.1686 13.6133 19.4989 13.4539 18.4923C13.2307 17.1581 13.5495 16.1749 15.04 16.1749C16.1319 16.1749 18.1644 16.448 19.7824 17.1659C21.3844 17.8837 22.3409 19.2882 23.0104 19.2882C23.2814 19.2882 23.5683 19.1243 23.5683 18.5625C23.5683 17.4234 23.1539 15.5975 22.6358 14.9421C24.1342 14.8563 25.3298 14.8719 25.9993 14.9499C27.3941 15.184 27.4658 15.8706 27.7368 16.3232C28.0158 16.7679 28.4781 16.963 29.044 16.963C30.0801 16.963 30.7337 16.4402 30.7337 14.5442C30.7337 10.3854 28.0477 8.36452 25.2341 8.36452C22.9227 8.36452 22.03 8.86389 19.8382 8.86389C18.2839 8.86389 16.9927 5.76625 15.2233 5.35271C14.4422 3.65174 12.6887 3.45668 11.6127 4.31497C10.6324 3.72977 9.10205 4.04968 9.03829 5.12644C7.91446 4.78312 6.45588 5.37612 7.08554 6.82741C4.32778 6.90543 3.81768 9.29303 5.68275 9.55832C3.27569 10.8926 4.3756 13.1943 6.39211 12.7106C6.53558 14.3491 7.21307 16.9864 7.21307 18.8122C7.21307 21.3481 6.03345 21.9411 4.4314 21.9411C3.1641 21.9411 1.29903 21.4885 0.0317383 21.1374V22.9086C1.307 23.2207 3.22787 23.6186 4.66254 23.6186C7.19712 23.6108 8.60788 22.1595 8.60788 19.3896ZM14.1951 25.1323C15.9327 25.6005 18.3318 25.858 20.3164 25.7175C23.8154 25.4757 26.4377 24.2038 27.9202 23.2753C27.0354 25.4679 23.7038 26.8333 20.4758 27.2234C20.4519 27.3795 20.428 27.5434 20.4041 27.6916C22.8271 27.5668 25.1225 26.7943 26.1667 26.0921C25.5689 28.2534 22.6039 29.1195 19.9179 29.2443C19.8461 29.416 19.7585 29.572 19.6788 29.7281C21.241 29.7593 22.7474 29.4706 23.6401 29.1975C22.835 30.7034 20.0613 31.8894 17.2319 31.8894C15.845 31.8894 14.1075 31.6241 12.609 30.9219C13.685 28.9712 14.1075 26.9738 14.1951 25.1323ZM21.1852 12.9603C21.5677 11.8523 21.8945 11.0096 22.5162 10.3698C23.1698 9.69877 23.8871 9.4881 25.4812 9.4881C27.6731 9.4881 29.5063 11.6572 29.5063 14.6924C29.5063 15.145 28.8846 15.1372 28.6933 14.7315C27.9441 13.444 26.9398 13.2568 25.3457 13.1397C24.1741 13.0695 22.7553 13.1709 21.4641 13.2256C21.2171 13.2334 21.1533 13.0695 21.1852 12.9603Z" fill="#191715"/>
<path d="M0.0317383 28.3001C1.35482 28.0427 2.66197 27.8008 2.66197 27.8008L2.82935 27.0985C2.23157 27.0673 1.04398 27.0829 0.0317383 27.1063V28.3001Z" fill="#191715"/>
<path d="M14.3146 7.41241C14.7769 7.25636 15.4464 7.70891 15.7971 8.41115C16.1558 9.11338 16.0681 9.80781 15.6058 9.95606C15.1436 10.1121 14.482 9.66737 14.1233 8.96513C14.0755 8.8715 14.0357 8.77787 14.0038 8.68424L14.0835 8.66083C14.2349 8.80128 14.4103 8.84029 14.5298 8.76226C14.6892 8.66083 14.6733 8.37994 14.5378 8.13805C14.4422 7.94299 14.211 7.73232 14.0277 7.74792L13.9958 7.70891C14.0596 7.56066 14.1712 7.45923 14.3146 7.41241ZM17.5586 14.466C15.4863 14.0212 13.2147 13.4282 12.0032 11.6882C11.9793 11.657 11.9395 11.6414 11.8996 11.6492C11.8597 11.657 11.8358 11.696 11.8358 11.7351C11.8279 11.8287 11.8438 11.9379 11.8677 12.0394L11.7003 12.1018C11.3815 11.6648 11.3178 11.1265 11.6366 10.7441C12.0909 10.1901 13.0155 10.2448 13.5654 10.5881L13.4937 10.7363C13.1988 10.6895 12.9118 10.6895 12.6966 10.8222C12.5133 10.9314 12.4814 11.0952 12.601 11.3059C13.6053 13.1317 16.5304 13.5297 19.9975 13.2644C20.3562 13.2332 20.4359 13.0771 20.4837 12.9133C20.7866 11.7351 21.3286 10.6895 22.1495 9.88584C21.5199 9.97167 20.9301 9.99508 20.412 10.0185C18.6186 10.1277 17.5905 9.90144 17.2716 9.65176L17.3274 9.49571C17.5187 9.55813 17.718 9.57374 17.7578 9.51912C17.8136 9.44889 17.7738 9.40208 17.6861 9.32405C17.3434 9.01195 15.8131 7.47483 15.821 7.48263C15.6537 6.1874 13.7248 6.14058 12.9517 7.41241L12.6887 7.34219C12.7684 7.06129 12.88 6.83502 12.9836 6.67116C11.3736 7.03008 10.457 8.44236 10.2896 9.81562C9.57223 15.6988 18.6904 14.3411 21.2887 16.6975C21.3365 16.7365 21.4641 16.9082 21.5517 16.799C21.6633 16.4712 20.5156 15.1058 17.5586 14.466Z" fill="white"/>
<path d="M27.9122 23.2751C26.4377 24.2037 23.8075 25.4755 20.3085 25.7174C18.3239 25.8578 15.9168 25.6003 14.1872 25.1322C14.1633 25.7018 14.0996 26.2792 14.0039 26.8722C14.9843 27.114 16.7218 27.4417 19.2325 27.512C19.1209 28.1752 18.4354 30.4145 16.682 31.8658C19.8781 31.9985 22.7793 30.7813 23.6321 29.1895C22.7395 29.4626 21.241 29.7513 19.6709 29.7201C19.7506 29.5719 19.8303 29.408 19.91 29.2363C22.596 29.1115 25.561 28.2454 26.1588 26.0841C25.1146 26.7863 22.8112 27.5588 20.3962 27.6836C20.428 27.5354 20.452 27.3793 20.4679 27.2155C23.6959 26.8331 27.0275 25.4677 27.9122 23.2751Z" fill="white"/>
</g>
</g>
<defs>
<clipPath id="clip0_57_632">
<rect width="112" height="37" fill="white"/>
</clipPath>
</defs>
</svg>
